<?xml version="1.0" encoding="iso-8859-1"?>
<!-- Generator: Adobe Illustrator 18.0.0, SVG Export Plug-In . SVG Version: 6.00 Build 0)  -->
<!DOCTYPE svg PUBLIC "-//W3C//DTD SVG 1.1//EN" "http://www.w3.org/Graphics/SVG/1.1/DTD/svg11.dtd">
<svg version="1.1" id="Capa_1" xmlns="http://www.w3.org/2000/svg" xmlns:xlink="http://www.w3.org/1999/xlink" x="0px" y="0px"
	 viewBox="0 0 330.861 330.861" style="enable-background:new 0 0 330.861 330.861;" xml:space="preserve">
<g>
	<path d="M319.449,71.51l-69.134-53.598c-5.266-4.083-11.638-6.179-18.057-6.179c-4.413,0-8.848,0.99-12.962,3.006
		c-10.041,4.921-16.427,15.098-16.498,26.269H148.09c-16.273,0-29.465,13.192-29.465,29.465v48.644
		c0,16.273,13.192,29.465,29.465,29.465h54.708c0.071,11.171,6.457,21.348,16.498,26.269c4.113,2.016,8.55,3.006,12.962,3.006
		c6.42,0,12.79-2.095,18.057-6.179l69.134-53.598c7.199-5.581,11.412-14.178,11.412-23.286S326.648,77.091,319.449,71.51z
		 M232.262,148.394v-29.276H148.09V70.475h84.172V41.199l69.134,53.598L232.262,148.394z"/>
	<path d="M182.771,182.277h-54.708c-0.071-11.171-6.457-21.348-16.498-26.269c-4.113-2.016-8.55-3.006-12.962-3.006
		c-6.42,0-12.79,2.095-18.057,6.179l-69.134,53.598C4.213,218.359,0,226.956,0,236.064s4.213,17.706,11.412,23.286l69.134,53.598
		c5.267,4.083,11.639,6.179,18.057,6.179c4.413,0,8.848-0.99,12.962-3.006c10.041-4.921,16.427-15.098,16.498-26.269h54.708
		c16.273,0,29.465-13.192,29.465-29.465v-48.644C212.236,195.469,199.044,182.277,182.771,182.277z M182.771,260.386H98.599v29.276
		l-69.134-53.598l69.134-53.598v29.276h84.172V260.386z"/>
</g>
<g>
</g>
<g>
</g>
<g>
</g>
<g>
</g>
<g>
</g>
<g>
</g>
<g>
</g>
<g>
</g>
<g>
</g>
<g>
</g>
<g>
</g>
<g>
</g>
<g>
</g>
<g>
</g>
<g>
</g>
</svg>
